name Visual3d_SIMM_grf.mot
datacolumns 19
datarows 51
range 0.760000 1.260000
endheader
time	ground_force_vx	ground_force_vy	ground_force_vz	ground_force_px	ground_force_py	ground_force_pz	l_ground_force_vx	l_ground_force_vy	l_ground_force_vz	l_ground_force_px	l_ground_force_py	l_ground_force_pz	ground_torque_x	ground_torque_y	ground_torque_z	l_ground_torque_x	l_ground_torque_y	l_ground_torque_z
0.760000	0.000000	0.000000	0.000000	0.000000	0.000000	0.000000	-12.323109	155.711929	-9.970172	0.509477	-0.007342	-0.346519	0.000000	0.000000	0.000000	-0.001739	0.171160	0.003587
0.770000	0.000000	0.000000	0.000000	0.000000	0.000000	0.000000	-14.103310	183.794861	-12.826547	0.509340	-0.007466	-0.345107	0.000000	0.000000	0.000000	-0.001743	0.171552	0.003595
0.780000	0.000000	0.000000	0.000000	0.000000	0.000000	0.000000	-15.825405	208.934708	-15.841522	0.509165	-0.007638	-0.343813	0.000000	0.000000	0.000000	-0.001790	0.176149	0.003692
0.790000	0.000000	0.000000	0.000000	0.000000	0.000000	0.000000	-17.638636	230.374969	-18.461235	0.509006	-0.007780	-0.342821	0.000000	0.000000	0.000000	-0.001949	0.191792	0.004019
0.800000	0.000000	0.000000	0.000000	0.000000	0.000000	0.000000	-19.672733	247.886261	-20.451347	0.508925	-0.007855	-0.342138	0.000000	0.000000	0.000000	-0.002232	0.219665	0.004604
0.810000	0.000000	0.000000	0.000000	0.000000	0.000000	0.000000	-21.956732	261.557465	-21.685314	0.508964	-0.007852	-0.341726	0.000000	0.000000	0.000000	-0.002616	0.257430	0.005395
0.820000	0.000000	0.000000	0.000000	0.000000	0.000000	0.000000	-24.391409	271.685913	-22.119469	0.509135	-0.007781	-0.341528	0.000000	0.000000	0.000000	-0.003039	0.299052	0.006267
0.830000	0.000000	0.000000	0.000000	0.000000	0.000000	0.000000	-26.772097	278.719269	-21.804783	0.509421	-0.007654	-0.341476	0.000000	0.000000	0.000000	-0.003416	0.336105	0.007044
0.840000	0.000000	0.000000	0.000000	0.000000	0.000000	0.000000	-28.864002	283.199493	-20.854248	0.509779	-0.007489	-0.341504	0.000000	0.000000	0.000000	-0.003667	0.360775	0.007561
0.850000	0.000000	0.000000	0.000000	0.000000	0.000000	0.000000	-30.487381	285.698853	-19.400480	0.510150	-0.007300	-0.341557	0.000000	0.000000	0.000000	-0.003739	0.367937	0.007711
0.860000	0.000000	0.000000	0.000000	0.000000	0.000000	0.000000	-31.568007	286.770386	-17.576794	0.510470	-0.007096	-0.341599	0.000000	0.000000	0.000000	-0.003620	0.356229	0.007465
0.870000	0.000000	0.000000	0.000000	0.000000	0.000000	0.000000	-32.141819	286.885468	-15.508101	0.510686	-0.006889	-0.341599	0.000000	0.000000	0.000000	-0.003336	0.328280	0.006880
0.880000	0.000000	0.000000	0.000000	0.000000	0.000000	0.000000	-32.316692	286.341492	-13.306611	0.510778	-0.006690	-0.341547	0.000000	0.000000	0.000000	-0.002942	0.289447	0.006066
0.890000	0.000000	0.000000	0.000000	0.000000	0.000000	0.000000	-32.227821	285.249390	-11.074316	0.510751	-0.006511	-0.341453	0.000000	0.000000	0.000000	-0.002509	0.246889	0.005174
0.900000	0.000000	0.000000	0.000000	0.000000	0.000000	0.000000	-31.999281	283.607147	-8.893761	0.510619	-0.006358	-0.341335	0.000000	0.000000	0.000000	-0.002104	0.207033	0.004339
0.910000	0.000000	0.000000	0.000000	0.000000	0.000000	0.000000	-31.721176	281.370789	-6.822242	0.510411	-0.006230	-0.341208	0.000000	0.000000	0.000000	-0.001771	0.174280	0.003652
0.920000	0.000000	0.000000	0.000000	0.000000	0.000000	0.000000	-31.439299	278.535156	-4.903749	0.510161	-0.006126	-0.341080	0.000000	0.000000	0.000000	-0.001527	0.150235	0.003148
0.930000	0.000000	0.000000	0.000000	0.000000	0.000000	0.000000	-31.165106	275.175751	-3.171993	0.509891	-0.006042	-0.340948	0.000000	0.000000	0.000000	-0.001356	0.133421	0.002796
0.940000	0.000000	0.000000	0.000000	0.000000	0.000000	0.000000	-30.891546	271.458374	-1.643705	0.509615	-0.005973	-0.340809	0.000000	0.000000	0.000000	-0.001224	0.120448	0.002524
0.950000	0.000000	0.000000	0.000000	0.000000	0.000000	0.000000	-30.605179	267.621979	-0.311608	0.509342	-0.005916	-0.340657	0.000000	0.000000	0.000000	-0.001096	0.107850	0.002260
0.960000	0.000000	0.000000	0.000000	0.000000	0.000000	0.000000	-30.299345	263.943085	0.857892	0.509060	-0.005864	-0.340484	0.000000	0.000000	0.000000	-0.000942	0.092679	0.001942
0.970000	0.000000	0.000000	0.000000	0.000000	0.000000	0.000000	-29.981916	260.677368	1.917319	0.508754	-0.005812	-0.340287	0.000000	0.000000	0.000000	-0.000741	0.072920	0.001528
0.980000	0.000000	0.000000	0.000000	0.000000	0.000000	0.000000	-29.674669	258.027252	2.926625	0.508416	-0.005758	-0.340079	0.000000	0.000000	0.000000	-0.000486	0.047848	0.001003
0.990000	0.000000	0.000000	0.000000	0.000000	0.000000	0.000000	-29.408157	256.141571	3.946847	0.508044	-0.005698	-0.339883	0.000000	0.000000	0.000000	-0.000183	0.018040	0.000378
1.000000	0.000000	0.000000	0.000000	0.000000	0.000000	0.000000	-29.215399	255.108047	5.032005	0.507645	-0.005629	-0.339728	0.000000	0.000000	0.000000	0.000152	-0.014969	-0.000314
1.010000	0.000000	0.000000	0.000000	0.000000	0.000000	0.000000	-29.121866	254.950989	6.223411	0.507235	-0.005549	-0.339640	0.000000	0.000000	0.000000	0.000495	-0.048755	-0.001022
1.020000	0.000000	0.000000	0.000000	0.000000	0.000000	0.000000	-29.138670	255.641998	7.550114	0.506831	-0.005463	-0.339631	0.000000	0.000000	0.000000	0.000825	-0.081161	-0.001701
1.030000	0.000000	0.000000	0.000000	0.000000	0.000000	0.000000	-29.259829	257.118011	9.029451	0.506456	-0.005376	-0.339702	0.000000	0.000000	0.000000	0.001127	-0.110854	-0.002323
1.040000	0.000000	0.000000	0.000000	0.000000	0.000000	0.000000	-29.466311	259.294647	10.664333	0.506111	-0.005297	-0.339833	0.000000	0.000000	0.000000	0.001398	-0.137562	-0.002883
1.050000	0.000000	0.000000	0.000000	0.000000	0.000000	0.000000	-29.730888	262.041901	12.437106	0.505807	-0.005230	-0.340002	0.000000	0.000000	0.000000	0.001643	-0.161680	-0.003388
1.060000	0.000000	0.000000	0.000000	0.000000	0.000000	0.000000	-30.023993	265.193634	14.312234	0.505564	-0.005178	-0.340182	0.000000	0.000000	0.000000	0.001861	-0.183130	-0.003838
1.070000	0.000000	0.000000	0.000000	0.000000	0.000000	0.000000	-30.321297	268.569977	16.247969	0.505381	-0.005144	-0.340337	0.000000	0.000000	0.000000	0.002056	-0.202296	-0.004240
1.080000	0.000000	0.000000	0.000000	0.000000	0.000000	0.000000	-30.609674	271.986694	18.205956	0.505234	-0.005127	-0.340429	0.000000	0.000000	0.000000	0.002235	-0.219959	-0.004610
1.090000	0.000000	0.000000	0.000000	0.000000	0.000000	0.000000	-30.889524	275.254059	20.162317	0.505098	-0.005131	-0.340431	0.000000	0.000000	0.000000	0.002408	-0.236977	-0.004966
1.100000	0.000000	0.000000	0.000000	0.000000	0.000000	0.000000	-31.169886	278.178864	22.116455	0.504957	-0.005154	-0.340338	0.000000	0.000000	0.000000	0.002577	-0.253604	-0.005315
1.110000	0.000000	0.000000	0.000000	0.000000	0.000000	0.000000	-31.469875	280.579590	24.095219	0.504811	-0.005191	-0.340180	0.000000	0.000000	0.000000	0.002752	-0.270833	-0.005676
1.120000	0.000000	0.000000	0.000000	0.000000	0.000000	0.000000	-31.809431	282.315643	26.148634	0.504667	-0.005232	-0.340000	0.000000	0.000000	0.000000	0.002934	-0.288670	-0.006050
1.130000	0.000000	0.000000	0.000000	0.000000	0.000000	0.000000	-32.195972	283.296204	28.334929	0.504538	-0.005264	-0.339838	0.000000	0.000000	0.000000	0.003107	-0.305750	-0.006408
1.140000	0.000000	0.000000	0.000000	0.000000	0.000000	0.000000	-32.619240	283.476868	30.699011	0.504432	-0.005280	-0.339710	0.000000	0.000000	0.000000	0.003269	-0.321705	-0.006742
1.150000	0.000000	0.000000	0.000000	0.000000	0.000000	0.000000	-33.047810	282.820526	33.261456	0.504349	-0.005279	-0.339610	0.000000	0.000000	0.000000	0.003412	-0.335771	-0.007037
1.160000	0.000000	0.000000	0.000000	0.000000	0.000000	0.000000	-33.422157	281.252747	36.004143	0.504284	-0.005262	-0.339523	0.000000	0.000000	0.000000	0.003528	-0.347130	-0.007275
1.170000	0.000000	0.000000	0.000000	0.000000	0.000000	0.000000	-33.658897	278.638397	38.867805	0.504223	-0.005230	-0.339427	0.000000	0.000000	0.000000	0.003593	-0.353499	-0.007408
1.180000	0.000000	0.000000	0.000000	0.000000	0.000000	0.000000	-33.661919	274.776276	41.757450	0.504144	-0.005181	-0.339290	0.000000	0.000000	0.000000	0.003584	-0.352642	-0.007390
1.190000	0.000000	0.000000	0.000000	0.000000	0.000000	0.000000	-33.340130	269.396637	44.550434	0.504023	-0.005108	-0.339077	0.000000	0.000000	0.000000	0.003490	-0.343416	-0.007197
1.200000	0.000000	0.000000	0.000000	0.000000	0.000000	0.000000	-32.613113	262.189484	47.094738	0.503842	-0.005009	-0.338761	0.000000	0.000000	0.000000	0.003306	-0.325319	-0.006818
1.210000	0.000000	0.000000	0.000000	0.000000	0.000000	0.000000	-31.416054	252.823090	49.205082	0.503587	-0.004885	-0.338337	0.000000	0.000000	0.000000	0.003028	-0.297978	-0.006245
1.220000	6.553295	31.157663	-1.978864	0.273406	-0.010561	0.050018	-29.707090	240.975372	50.667347	0.503238	-0.004746	-0.337841	-0.000099	-0.023729	0.000442	0.002660	-0.261694	-0.005484
1.230000	8.347052	45.819202	-1.888862	0.275346	-0.010646	0.052407	-27.473743	226.398895	51.252010	0.502739	-0.004619	-0.337336	-0.000207	-0.049779	0.000927	0.002215	-0.217930	-0.004567
1.240000	9.956534	62.245281	-2.135765	0.276739	-0.010639	0.055559	-24.741772	209.003021	50.731491	0.501995	-0.004551	-0.336933	-0.000249	-0.059796	0.001114	0.001716	-0.168880	-0.003539
1.250000	11.592118	79.872894	-3.588868	0.277706	-0.010494	0.059900	-21.585100	188.948334	48.904720	0.500882	-0.004600	-0.336780	-0.000193	-0.046370	0.000864	0.001202	-0.118268	-0.002479
1.260000	13.486802	98.285378	-6.855638	0.278331	-0.010212	0.065771	-18.125992	166.687836	45.650139	0.499256	-0.004833	-0.337037	-0.000050	-0.011916	0.000222	0.000730	-0.071812	-0.001505
